<?xml version="1.0" encoding="UTF-8" standalone="no"?>
<!DOCTYPE svg PUBLIC "-//W3C//DTD SVG 1.1//EN"
 "http://www.w3.org/Graphics/SVG/1.1/DTD/svg11.dtd">
<!-- Generated by graphviz version 12.1.2 (20240928.0832)
 -->
<!-- Title: public.settlements Pages: 1 -->
<svg width="1418pt" height="1468pt"
 viewBox="0.00 0.00 1418.27 1468.40" xmlns="http://www.w3.org/2000/svg" xmlns:xlink="http://www.w3.org/1999/xlink">
<g id="graph0" class="graph" transform="scale(1 1) rotate(0) translate(4 1464.4)">
<title>public.settlements</title>
<polygon fill="white" stroke="none" points="-4,4 -4,-1464.4 1414.27,-1464.4 1414.27,4 -4,4"/>
<!-- public.settlements -->
<g id="node1" class="node">
<title>public.settlements</title>
<polygon fill="#efefef" stroke="none" points="596.56,-943.4 596.56,-979 865.52,-979 865.52,-943.4 596.56,-943.4"/>
<polygon fill="none" stroke="black" points="596.56,-943.4 596.56,-979 865.52,-979 865.52,-943.4 596.56,-943.4"/>
<text text-anchor="start" x="603.56" y="-956.8" font-family="Arial Bold" font-size="18.00">public.settlements</text>
<text text-anchor="start" x="734.03" y="-956.8" font-family="Arial" font-size="14.00">    </text>
<text text-anchor="start" x="765.15" y="-956.8" font-family="Arial" font-size="14.00" fill="#666666">[BASE TABLE]</text>
<polygon fill="none" stroke="black" points="596.56,-912.6 596.56,-943.4 865.52,-943.4 865.52,-912.6 596.56,-912.6"/>
<text text-anchor="start" x="603.56" y="-924.8" font-family="Arial" font-size="14.00">id </text>
<text text-anchor="start" x="618.35" y="-924.8" font-family="Arial" font-size="14.00" fill="#666666">[uuid]</text>
<polygon fill="none" stroke="black" points="596.56,-881.8 596.56,-912.6 865.52,-912.6 865.52,-881.8 596.56,-881.8"/>
<text text-anchor="start" x="603.56" y="-894" font-family="Arial" font-size="14.00">worker_id </text>
<text text-anchor="start" x="668.14" y="-894" font-family="Arial" font-size="14.00" fill="#666666">[uuid]</text>
<polygon fill="none" stroke="black" points="596.56,-851 596.56,-881.8 865.52,-881.8 865.52,-851 596.56,-851"/>
<text text-anchor="start" x="603.56" y="-863.2" font-family="Arial" font-size="14.00">period_start </text>
<text text-anchor="start" x="681.38" y="-863.2" font-family="Arial" font-size="14.00" fill="#666666">[date]</text>
<polygon fill="none" stroke="black" points="596.56,-820.2 596.56,-851 865.52,-851 865.52,-820.2 596.56,-820.2"/>
<text text-anchor="start" x="603.56" y="-832.4" font-family="Arial" font-size="14.00">period_end </text>
<text text-anchor="start" x="677.51" y="-832.4" font-family="Arial" font-size="14.00" fill="#666666">[date]</text>
<polygon fill="none" stroke="black" points="596.56,-789.4 596.56,-820.2 865.52,-820.2 865.52,-789.4 596.56,-789.4"/>
<text text-anchor="start" x="603.56" y="-801.6" font-family="Arial" font-size="14.00">total_amount </text>
<text text-anchor="start" x="688.39" y="-801.6" font-family="Arial" font-size="14.00" fill="#666666">[numeric(12,2)]</text>
<polygon fill="none" stroke="black" points="596.56,-758.6 596.56,-789.4 865.52,-789.4 865.52,-758.6 596.56,-758.6"/>
<text text-anchor="start" x="603.56" y="-770.8" font-family="Arial" font-size="14.00">status </text>
<text text-anchor="start" x="644.8" y="-770.8" font-family="Arial" font-size="14.00" fill="#666666">[settlement_status]</text>
<polygon fill="none" stroke="black" points="596.56,-727.8 596.56,-758.6 865.52,-758.6 865.52,-727.8 596.56,-727.8"/>
<text text-anchor="start" x="603.56" y="-740" font-family="Arial" font-size="14.00">generated_at </text>
<text text-anchor="start" x="689.97" y="-740" font-family="Arial" font-size="14.00" fill="#666666">[timestamp with time zone]</text>
<polygon fill="none" stroke="black" points="596.56,-697 596.56,-727.8 865.52,-727.8 865.52,-697 596.56,-697"/>
<text text-anchor="start" x="603.56" y="-709.2" font-family="Arial" font-size="14.00">created_at </text>
<text text-anchor="start" x="673.61" y="-709.2" font-family="Arial" font-size="14.00" fill="#666666">[timestamp with time zone]</text>
<polygon fill="none" stroke="black" points="596.56,-666.2 596.56,-697 865.52,-697 865.52,-666.2 596.56,-666.2"/>
<text text-anchor="start" x="603.56" y="-678.4" font-family="Arial" font-size="14.00">organization_id </text>
<text text-anchor="start" x="702.41" y="-678.4" font-family="Arial" font-size="14.00" fill="#666666">[uuid]</text>
<polygon fill="none" stroke="black" points="596.56,-635.4 596.56,-666.2 865.52,-666.2 865.52,-635.4 596.56,-635.4"/>
<text text-anchor="start" x="603.56" y="-647.6" font-family="Arial" font-size="14.00">payee_type </text>
<text text-anchor="start" x="679.84" y="-647.6" font-family="Arial" font-size="14.00" fill="#666666">[settlement_payee_type]</text>
<polygon fill="none" stroke="black" points="596.56,-604.6 596.56,-635.4 865.52,-635.4 865.52,-604.6 596.56,-604.6"/>
<text text-anchor="start" x="603.56" y="-616.8" font-family="Arial" font-size="14.00">crew_id </text>
<text text-anchor="start" x="655.69" y="-616.8" font-family="Arial" font-size="14.00" fill="#666666">[uuid]</text>
<polygon fill="none" stroke="black" stroke-width="3" points="595.06,-603.1 595.06,-980.5 867.02,-980.5 867.02,-603.1 595.06,-603.1"/>
</g>
<!-- public.workers -->
<g id="node3" class="node">
<title>public.workers</title>
<polygon fill="#efefef" stroke="none" points="43.2,-428.2 43.2,-463.8 296.88,-463.8 296.88,-428.2 43.2,-428.2"/>
<polygon fill="none" stroke="black" points="43.2,-428.2 43.2,-463.8 296.88,-463.8 296.88,-428.2 43.2,-428.2"/>
<text text-anchor="start" x="54.06" y="-441.6" font-family="Arial Bold" font-size="18.00">public.workers</text>
<text text-anchor="start" x="161.53" y="-441.6" font-family="Arial" font-size="14.00">    </text>
<text text-anchor="start" x="192.65" y="-441.6" font-family="Arial" font-size="14.00" fill="#666666">[BASE TABLE]</text>
<polygon fill="none" stroke="black" points="43.2,-397.4 43.2,-428.2 296.88,-428.2 296.88,-397.4 43.2,-397.4"/>
<text text-anchor="start" x="50.2" y="-409.6" font-family="Arial" font-size="14.00">id </text>
<text text-anchor="start" x="64.99" y="-409.6" font-family="Arial" font-size="14.00" fill="#666666">[uuid]</text>
<polygon fill="none" stroke="black" points="43.2,-366.6 43.2,-397.4 296.88,-397.4 296.88,-366.6 43.2,-366.6"/>
<text text-anchor="start" x="50.2" y="-378.8" font-family="Arial" font-size="14.00">full_name </text>
<text text-anchor="start" x="114.79" y="-378.8" font-family="Arial" font-size="14.00" fill="#666666">[varchar(150)]</text>
<polygon fill="none" stroke="black" points="43.2,-335.8 43.2,-366.6 296.88,-366.6 296.88,-335.8 43.2,-335.8"/>
<text text-anchor="start" x="50.2" y="-348" font-family="Arial" font-size="14.00">national_id </text>
<text text-anchor="start" x="121.81" y="-348" font-family="Arial" font-size="14.00" fill="#666666">[varchar(20)]</text>
<polygon fill="none" stroke="black" points="43.2,-305 43.2,-335.8 296.88,-335.8 296.88,-305 43.2,-305"/>
<text text-anchor="start" x="50.2" y="-317.2" font-family="Arial" font-size="14.00">phone </text>
<text text-anchor="start" x="93.02" y="-317.2" font-family="Arial" font-size="14.00" fill="#666666">[varchar(20)]</text>
<polygon fill="none" stroke="black" points="43.2,-274.2 43.2,-305 296.88,-305 296.88,-274.2 43.2,-274.2"/>
<text text-anchor="start" x="50.2" y="-286.4" font-family="Arial" font-size="14.00">role </text>
<text text-anchor="start" x="77.43" y="-286.4" font-family="Arial" font-size="14.00" fill="#666666">[worker_role]</text>
<polygon fill="none" stroke="black" points="43.2,-243.4 43.2,-274.2 296.88,-274.2 296.88,-243.4 43.2,-243.4"/>
<text text-anchor="start" x="50.2" y="-255.6" font-family="Arial" font-size="14.00">qr_badge_url </text>
<text text-anchor="start" x="136.6" y="-255.6" font-family="Arial" font-size="14.00" fill="#666666">[text]</text>
<polygon fill="none" stroke="black" points="43.2,-212.6 43.2,-243.4 296.88,-243.4 296.88,-212.6 43.2,-212.6"/>
<text text-anchor="start" x="50.2" y="-224.8" font-family="Arial" font-size="14.00">status </text>
<text text-anchor="start" x="91.44" y="-224.8" font-family="Arial" font-size="14.00" fill="#666666">[entity_status]</text>
<polygon fill="none" stroke="black" points="43.2,-181.8 43.2,-212.6 296.88,-212.6 296.88,-181.8 43.2,-181.8"/>
<text text-anchor="start" x="50.2" y="-194" font-family="Arial" font-size="14.00">auth_user_id </text>
<text text-anchor="start" x="135.04" y="-194" font-family="Arial" font-size="14.00" fill="#666666">[uuid]</text>
<polygon fill="none" stroke="black" points="43.2,-151 43.2,-181.8 296.88,-181.8 296.88,-151 43.2,-151"/>
<text text-anchor="start" x="50.2" y="-163.2" font-family="Arial" font-size="14.00">created_at </text>
<text text-anchor="start" x="120.25" y="-163.2" font-family="Arial" font-size="14.00" fill="#666666">[timestamp with time zone]</text>
<polygon fill="none" stroke="black" points="43.2,-120.2 43.2,-151 296.88,-151 296.88,-120.2 43.2,-120.2"/>
<text text-anchor="start" x="50.2" y="-132.4" font-family="Arial" font-size="14.00">updated_at </text>
<text text-anchor="start" x="124.16" y="-132.4" font-family="Arial" font-size="14.00" fill="#666666">[timestamp with time zone]</text>
<polygon fill="none" stroke="black" points="43.2,-89.4 43.2,-120.2 296.88,-120.2 296.88,-89.4 43.2,-89.4"/>
<text text-anchor="start" x="50.2" y="-101.6" font-family="Arial" font-size="14.00">organization_id </text>
<text text-anchor="start" x="149.05" y="-101.6" font-family="Arial" font-size="14.00" fill="#666666">[uuid]</text>
<polygon fill="none" stroke="black" points="43.2,-58.6 43.2,-89.4 296.88,-89.4 296.88,-58.6 43.2,-58.6"/>
<text text-anchor="start" x="50.2" y="-70.8" font-family="Arial" font-size="14.00">crew_id </text>
<text text-anchor="start" x="102.33" y="-70.8" font-family="Arial" font-size="14.00" fill="#666666">[uuid]</text>
</g>
<!-- public.settlements&#45;&gt;public.workers -->
<g id="edge2" class="edge">
<title>public.settlements:worker_id&#45;&gt;public.workers:id</title>
<path fill="none" stroke="black" d="M585.27,-897.02C397.89,-890.15 444.54,-693.42 349.04,-522.4 322.83,-475.46 351.64,-412.8 297.88,-412.8"/>
<polygon fill="black" stroke="black" points="585.23,-897.01 595.14,-901.69 590.56,-897.11 594.89,-897.19 594.89,-897.19 594.89,-897.19 590.56,-897.11 595.31,-892.69 585.23,-897.01"/>
<text text-anchor="start" x="85.07" y="-907.2" font-family="Arial" font-size="10.00">FOREIGN KEY (worker_id, organization_id) REFERENCES workers(id, organization_id) ON DELETE RESTRICT</text>
</g>
<!-- public.organizations -->
<g id="node4" class="node">
<title>public.organizations</title>
<polygon fill="#efefef" stroke="none" points="401.57,-443.6 401.57,-479.2 686.52,-479.2 686.52,-443.6 401.57,-443.6"/>
<polygon fill="none" stroke="black" points="401.57,-443.6 401.57,-479.2 686.52,-479.2 686.52,-443.6 401.57,-443.6"/>
<text text-anchor="start" x="408.57" y="-457" font-family="Arial Bold" font-size="18.00">public.organizations</text>
<text text-anchor="start" x="555.03" y="-457" font-family="Arial" font-size="14.00">    </text>
<text text-anchor="start" x="586.14" y="-457" font-family="Arial" font-size="14.00" fill="#666666">[BASE TABLE]</text>
<polygon fill="none" stroke="black" points="401.57,-412.8 401.57,-443.6 686.52,-443.6 686.52,-412.8 401.57,-412.8"/>
<text text-anchor="start" x="408.57" y="-425" font-family="Arial" font-size="14.00">id </text>
<text text-anchor="start" x="423.35" y="-425" font-family="Arial" font-size="14.00" fill="#666666">[uuid]</text>
<polygon fill="none" stroke="black" points="401.57,-382 401.57,-412.8 686.52,-412.8 686.52,-382 401.57,-382"/>
<text text-anchor="start" x="408.57" y="-394.2" font-family="Arial" font-size="14.00">name </text>
<text text-anchor="start" x="447.48" y="-394.2" font-family="Arial" font-size="14.00" fill="#666666">[varchar(150)]</text>
<polygon fill="none" stroke="black" points="401.57,-351.2 401.57,-382 686.52,-382 686.52,-351.2 401.57,-351.2"/>
<text text-anchor="start" x="408.57" y="-363.4" font-family="Arial" font-size="14.00">slug </text>
<text text-anchor="start" x="438.14" y="-363.4" font-family="Arial" font-size="14.00" fill="#666666">[varchar(80)]</text>
<polygon fill="none" stroke="black" points="401.57,-320.4 401.57,-351.2 686.52,-351.2 686.52,-320.4 401.57,-320.4"/>
<text text-anchor="start" x="408.57" y="-332.6" font-family="Arial" font-size="14.00">logo_url </text>
<text text-anchor="start" x="462.27" y="-332.6" font-family="Arial" font-size="14.00" fill="#666666">[text]</text>
<polygon fill="none" stroke="black" points="401.57,-289.6 401.57,-320.4 686.52,-320.4 686.52,-289.6 401.57,-289.6"/>
<text text-anchor="start" x="408.57" y="-301.8" font-family="Arial" font-size="14.00">brand_primary_color </text>
<text text-anchor="start" x="540.85" y="-301.8" font-family="Arial" font-size="14.00" fill="#666666">[varchar(9)]</text>
<polygon fill="none" stroke="black" points="401.57,-258.8 401.57,-289.6 686.52,-289.6 686.52,-258.8 401.57,-258.8"/>
<text text-anchor="start" x="408.57" y="-271" font-family="Arial" font-size="14.00">brand_secondary_color </text>
<text text-anchor="start" x="558.77" y="-271" font-family="Arial" font-size="14.00" fill="#666666">[varchar(9)]</text>
<polygon fill="none" stroke="black" points="401.57,-228 401.57,-258.8 686.52,-258.8 686.52,-228 401.57,-228"/>
<text text-anchor="start" x="408.57" y="-240.2" font-family="Arial" font-size="14.00">subscription_status </text>
<text text-anchor="start" x="532.3" y="-240.2" font-family="Arial" font-size="14.00" fill="#666666">[subscription_status]</text>
<polygon fill="none" stroke="black" points="401.57,-197.2 401.57,-228 686.52,-228 686.52,-197.2 401.57,-197.2"/>
<text text-anchor="start" x="408.57" y="-209.4" font-family="Arial" font-size="14.00">subscription_plan </text>
<text text-anchor="start" x="521.41" y="-209.4" font-family="Arial" font-size="14.00" fill="#666666">[varchar(50)]</text>
<polygon fill="none" stroke="black" points="401.57,-166.4 401.57,-197.2 686.52,-197.2 686.52,-166.4 401.57,-166.4"/>
<text text-anchor="start" x="408.57" y="-178.6" font-family="Arial" font-size="14.00">crew_mode_enabled </text>
<text text-anchor="start" x="542.43" y="-178.6" font-family="Arial" font-size="14.00" fill="#666666">[boolean]</text>
<polygon fill="none" stroke="black" points="401.57,-135.6 401.57,-166.4 686.52,-166.4 686.52,-135.6 401.57,-135.6"/>
<text text-anchor="start" x="408.57" y="-147.8" font-family="Arial" font-size="14.00">role_labels </text>
<text text-anchor="start" x="480.17" y="-147.8" font-family="Arial" font-size="14.00" fill="#666666">[jsonb]</text>
<polygon fill="none" stroke="black" points="401.57,-104.8 401.57,-135.6 686.52,-135.6 686.52,-104.8 401.57,-104.8"/>
<text text-anchor="start" x="408.57" y="-117" font-family="Arial" font-size="14.00">status </text>
<text text-anchor="start" x="449.81" y="-117" font-family="Arial" font-size="14.00" fill="#666666">[entity_status]</text>
<polygon fill="none" stroke="black" points="401.57,-74 401.57,-104.8 686.52,-104.8 686.52,-74 401.57,-74"/>
<text text-anchor="start" x="408.57" y="-86.2" font-family="Arial" font-size="14.00">created_at </text>
<text text-anchor="start" x="478.61" y="-86.2" font-family="Arial" font-size="14.00" fill="#666666">[timestamp with time zone]</text>
<polygon fill="none" stroke="black" points="401.57,-43.2 401.57,-74 686.52,-74 686.52,-43.2 401.57,-43.2"/>
<text text-anchor="start" x="408.57" y="-55.4" font-family="Arial" font-size="14.00">updated_at </text>
<text text-anchor="start" x="482.52" y="-55.4" font-family="Arial" font-size="14.00" fill="#666666">[timestamp with time zone]</text>
</g>
<!-- public.settlements&#45;&gt;public.organizations -->
<g id="edge3" class="edge">
<title>public.settlements:organization_id&#45;&gt;public.organizations:id</title>
<path fill="none" stroke="black" d="M585.42,-680.54C544.23,-671.09 567.79,-600.53 596.56,-558.4 620.84,-522.84 662.19,-557.93 686.52,-522.4 710.17,-487.85 729.38,-428.2 687.52,-428.2"/>
<polygon fill="black" stroke="black" points="585.28,-680.53 594.76,-686.04 590.59,-681.08 594.89,-681.53 594.89,-681.53 594.89,-681.53 590.59,-681.08 595.69,-677.09 585.28,-680.53"/>
<text text-anchor="start" x="182.89" y="-691.6" font-family="Arial" font-size="10.00">FOREIGN KEY (organization_id) REFERENCES organizations(id) ON DELETE RESTRICT</text>
</g>
<!-- public.crews -->
<g id="node5" class="node">
<title>public.crews</title>
<polygon fill="#efefef" stroke="none" points="791.2,-366.6 791.2,-402.2 1044.88,-402.2 1044.88,-366.6 791.2,-366.6"/>
<polygon fill="none" stroke="black" points="791.2,-366.6 791.2,-402.2 1044.88,-402.2 1044.88,-366.6 791.2,-366.6"/>
<text text-anchor="start" x="810.06" y="-380" font-family="Arial Bold" font-size="18.00">public.crews</text>
<text text-anchor="start" x="901.53" y="-380" font-family="Arial" font-size="14.00">    </text>
<text text-anchor="start" x="932.65" y="-380" font-family="Arial" font-size="14.00" fill="#666666">[BASE TABLE]</text>
<polygon fill="none" stroke="black" points="791.2,-335.8 791.2,-366.6 1044.88,-366.6 1044.88,-335.8 791.2,-335.8"/>
<text text-anchor="start" x="798.2" y="-348" font-family="Arial" font-size="14.00">id </text>
<text text-anchor="start" x="812.99" y="-348" font-family="Arial" font-size="14.00" fill="#666666">[uuid]</text>
<polygon fill="none" stroke="black" points="791.2,-305 791.2,-335.8 1044.88,-335.8 1044.88,-305 791.2,-305"/>
<text text-anchor="start" x="798.2" y="-317.2" font-family="Arial" font-size="14.00">organization_id </text>
<text text-anchor="start" x="897.05" y="-317.2" font-family="Arial" font-size="14.00" fill="#666666">[uuid]</text>
<polygon fill="none" stroke="black" points="791.2,-274.2 791.2,-305 1044.88,-305 1044.88,-274.2 791.2,-274.2"/>
<text text-anchor="start" x="798.2" y="-286.4" font-family="Arial" font-size="14.00">crew_lead_id </text>
<text text-anchor="start" x="884.59" y="-286.4" font-family="Arial" font-size="14.00" fill="#666666">[uuid]</text>
<polygon fill="none" stroke="black" points="791.2,-243.4 791.2,-274.2 1044.88,-274.2 1044.88,-243.4 791.2,-243.4"/>
<text text-anchor="start" x="798.2" y="-255.6" font-family="Arial" font-size="14.00">name </text>
<text text-anchor="start" x="837.11" y="-255.6" font-family="Arial" font-size="14.00" fill="#666666">[varchar(120)]</text>
<polygon fill="none" stroke="black" points="791.2,-212.6 791.2,-243.4 1044.88,-243.4 1044.88,-212.6 791.2,-212.6"/>
<text text-anchor="start" x="798.2" y="-224.8" font-family="Arial" font-size="14.00">status </text>
<text text-anchor="start" x="839.44" y="-224.8" font-family="Arial" font-size="14.00" fill="#666666">[entity_status]</text>
<polygon fill="none" stroke="black" points="791.2,-181.8 791.2,-212.6 1044.88,-212.6 1044.88,-181.8 791.2,-181.8"/>
<text text-anchor="start" x="798.2" y="-194" font-family="Arial" font-size="14.00">created_at </text>
<text text-anchor="start" x="868.25" y="-194" font-family="Arial" font-size="14.00" fill="#666666">[timestamp with time zone]</text>
<polygon fill="none" stroke="black" points="791.2,-151 791.2,-181.8 1044.88,-181.8 1044.88,-151 791.2,-151"/>
<text text-anchor="start" x="798.2" y="-163.2" font-family="Arial" font-size="14.00">updated_at </text>
<text text-anchor="start" x="872.16" y="-163.2" font-family="Arial" font-size="14.00" fill="#666666">[timestamp with time zone]</text>
<polygon fill="none" stroke="black" points="791.2,-120.2 791.2,-151 1044.88,-151 1044.88,-120.2 791.2,-120.2"/>
<text text-anchor="start" x="798.2" y="-132.4" font-family="Arial" font-size="14.00">supervisor_id </text>
<text text-anchor="start" x="885.35" y="-132.4" font-family="Arial" font-size="14.00" fill="#666666">[uuid]</text>
</g>
<!-- public.settlements&#45;&gt;public.crews -->
<g id="edge4" class="edge">
<title>public.settlements:crew_id&#45;&gt;public.crews:id</title>
<path fill="none" stroke="black" d="M873.96,-612.97C874.71,-601.32 862.38,-577.41 856.52,-558.4 838.82,-500.96 799.75,-502.89 782.2,-445.4 769.98,-405.35 739.33,-351.2 790.2,-351.2"/>
<polygon fill="black" stroke="black" points="874.03,-612.9 863.67,-616.5 870.16,-616.57 867.01,-619.54 867.01,-619.54 867.01,-619.54 870.16,-616.57 869.86,-623.04 874.03,-612.9"/>
<text text-anchor="start" x="873.52" y="-630" font-family="Arial" font-size="10.00">FOREIGN KEY (crew_id, organization_id) REFERENCES crews(id, organization_id) ON DELETE RESTRICT</text>
</g>
<!-- public.settlements&#45;&gt;public.crews -->
<g id="edge5" class="edge">
<title>public.settlements:crew_id&#45;&gt;public.crews:id</title>
<path fill="none" stroke="black" d="M877.06,-618.62C898.33,-611.85 881.65,-581.51 874.52,-558.4 856.82,-500.96 817.75,-502.89 800.2,-445.4 788.03,-405.51 757.57,-351.62 789.82,-351.2"/>
<polygon fill="black" stroke="black" points="877.19,-618.6 866.67,-615.49 871.9,-619.32 867.61,-619.91 867.61,-619.91 867.61,-619.91 871.9,-619.32 867.88,-624.41 877.19,-618.6"/>
<text text-anchor="start" x="873.95" y="-604" font-family="Arial" font-size="10.00">FOREIGN KEY (crew_id) REFERENCES crews(id) ON DELETE RESTRICT</text>
</g>
<!-- public.payments -->
<g id="node2" class="node">
<title>public.payments</title>
<polygon fill="#efefef" stroke="none" points="602.56,-1381.6 602.56,-1417.2 859.52,-1417.2 859.52,-1381.6 602.56,-1381.6"/>
<polygon fill="none" stroke="black" points="602.56,-1381.6 602.56,-1417.2 859.52,-1417.2 859.52,-1381.6 602.56,-1381.6"/>
<text text-anchor="start" x="609.56" y="-1395" font-family="Arial Bold" font-size="18.00">public.payments</text>
<text text-anchor="start" x="728.03" y="-1395" font-family="Arial" font-size="14.00">    </text>
<text text-anchor="start" x="759.15" y="-1395" font-family="Arial" font-size="14.00" fill="#666666">[BASE TABLE]</text>
<polygon fill="none" stroke="black" points="602.56,-1350.8 602.56,-1381.6 859.52,-1381.6 859.52,-1350.8 602.56,-1350.8"/>
<text text-anchor="start" x="609.56" y="-1363" font-family="Arial" font-size="14.00">id </text>
<text text-anchor="start" x="624.34" y="-1363" font-family="Arial" font-size="14.00" fill="#666666">[uuid]</text>
<polygon fill="none" stroke="black" points="602.56,-1320 602.56,-1350.8 859.52,-1350.8 859.52,-1320 602.56,-1320"/>
<text text-anchor="start" x="609.56" y="-1332.2" font-family="Arial" font-size="14.00">settlement_id </text>
<text text-anchor="start" x="696.72" y="-1332.2" font-family="Arial" font-size="14.00" fill="#666666">[uuid]</text>
<polygon fill="none" stroke="black" points="602.56,-1289.2 602.56,-1320 859.52,-1320 859.52,-1289.2 602.56,-1289.2"/>
<text text-anchor="start" x="609.56" y="-1301.4" font-family="Arial" font-size="14.00">worker_id </text>
<text text-anchor="start" x="674.14" y="-1301.4" font-family="Arial" font-size="14.00" fill="#666666">[uuid]</text>
<polygon fill="none" stroke="black" points="602.56,-1258.4 602.56,-1289.2 859.52,-1289.2 859.52,-1258.4 602.56,-1258.4"/>
<text text-anchor="start" x="609.56" y="-1270.6" font-family="Arial" font-size="14.00">amount </text>
<text text-anchor="start" x="660.14" y="-1270.6" font-family="Arial" font-size="14.00" fill="#666666">[numeric(12,2)]</text>
<polygon fill="none" stroke="black" points="602.56,-1227.6 602.56,-1258.4 859.52,-1258.4 859.52,-1227.6 602.56,-1227.6"/>
<text text-anchor="start" x="609.56" y="-1239.8" font-family="Arial" font-size="14.00">paid_at </text>
<text text-anchor="start" x="659.38" y="-1239.8" font-family="Arial" font-size="14.00" fill="#666666">[timestamp with time zone]</text>
<polygon fill="none" stroke="black" points="602.56,-1196.8 602.56,-1227.6 859.52,-1227.6 859.52,-1196.8 602.56,-1196.8"/>
<text text-anchor="start" x="609.56" y="-1209" font-family="Arial" font-size="14.00">notes </text>
<text text-anchor="start" x="647.7" y="-1209" font-family="Arial" font-size="14.00" fill="#666666">[varchar(500)]</text>
<polygon fill="none" stroke="black" points="602.56,-1166 602.56,-1196.8 859.52,-1196.8 859.52,-1166 602.56,-1166"/>
<text text-anchor="start" x="609.56" y="-1178.2" font-family="Arial" font-size="14.00">created_at </text>
<text text-anchor="start" x="679.61" y="-1178.2" font-family="Arial" font-size="14.00" fill="#666666">[timestamp with time zone]</text>
<polygon fill="none" stroke="black" points="602.56,-1135.2 602.56,-1166 859.52,-1166 859.52,-1135.2 602.56,-1135.2"/>
<text text-anchor="start" x="609.56" y="-1147.4" font-family="Arial" font-size="14.00">organization_id </text>
<text text-anchor="start" x="708.41" y="-1147.4" font-family="Arial" font-size="14.00" fill="#666666">[uuid]</text>
<polygon fill="none" stroke="black" points="602.56,-1104.4 602.56,-1135.2 859.52,-1135.2 859.52,-1104.4 602.56,-1104.4"/>
<text text-anchor="start" x="609.56" y="-1116.6" font-family="Arial" font-size="14.00">crew_id </text>
<text text-anchor="start" x="661.69" y="-1116.6" font-family="Arial" font-size="14.00" fill="#666666">[uuid]</text>
</g>
<!-- public.payments&#45;&gt;public.settlements -->
<g id="edge1" class="edge">
<title>public.payments:settlement_id&#45;&gt;public.settlements:id</title>
<path fill="none" stroke="black" d="M870.93,-1334.94C1041.77,-1319.64 1044.07,-928 866.52,-928"/>
<polygon fill="black" stroke="black" points="870.85,-1334.94 860.66,-1330.89 865.52,-1335.18 861.19,-1335.37 861.19,-1335.37 861.19,-1335.37 865.52,-1335.18 861.06,-1339.88 870.85,-1334.94"/>
<text text-anchor="start" x="867.52" y="-1345.4" font-family="Arial" font-size="10.00">FOREIGN KEY (settlement_id, organization_id) REFERENCES settlements(id, organization_id) ON DELETE RESTRICT</text>
</g>
</g>
</svg>
