<?xml version="1.0" encoding="UTF-8" standalone="no"?>
<!DOCTYPE svg PUBLIC "-//W3C//DTD SVG 1.1//EN"
 "http://www.w3.org/Graphics/SVG/1.1/DTD/svg11.dtd">
<!-- Generated by graphviz version 12.1.2 (20240928.0832)
 -->
<!-- Title: public.products Pages: 1 -->
<svg width="1159pt" height="1345pt"
 viewBox="0.00 0.00 1158.76 1345.20" xmlns="http://www.w3.org/2000/svg" xmlns:xlink="http://www.w3.org/1999/xlink">
<g id="graph0" class="graph" transform="scale(1 1) rotate(0) translate(4 1341.2)">
<title>public.products</title>
<polygon fill="white" stroke="none" points="-4,4 -4,-1341.2 1154.76,-1341.2 1154.76,4 -4,4"/>
<!-- public.products -->
<g id="node1" class="node">
<title>public.products</title>
<polygon fill="#efefef" stroke="none" points="452.5,-820.2 452.5,-855.8 706.19,-855.8 706.19,-820.2 452.5,-820.2"/>
<polygon fill="none" stroke="black" points="452.5,-820.2 452.5,-855.8 706.19,-855.8 706.19,-820.2 452.5,-820.2"/>
<text text-anchor="start" x="461.36" y="-833.6" font-family="Arial Bold" font-size="18.00">public.products</text>
<text text-anchor="start" x="572.84" y="-833.6" font-family="Arial" font-size="14.00">    </text>
<text text-anchor="start" x="603.96" y="-833.6" font-family="Arial" font-size="14.00" fill="#666666">[BASE TABLE]</text>
<polygon fill="none" stroke="black" points="452.5,-789.4 452.5,-820.2 706.19,-820.2 706.19,-789.4 452.5,-789.4"/>
<text text-anchor="start" x="459.5" y="-801.6" font-family="Arial" font-size="14.00">id </text>
<text text-anchor="start" x="474.29" y="-801.6" font-family="Arial" font-size="14.00" fill="#666666">[uuid]</text>
<polygon fill="none" stroke="black" points="452.5,-758.6 452.5,-789.4 706.19,-789.4 706.19,-758.6 452.5,-758.6"/>
<text text-anchor="start" x="459.5" y="-770.8" font-family="Arial" font-size="14.00">name </text>
<text text-anchor="start" x="498.41" y="-770.8" font-family="Arial" font-size="14.00" fill="#666666">[varchar(100)]</text>
<polygon fill="none" stroke="black" points="452.5,-727.8 452.5,-758.6 706.19,-758.6 706.19,-727.8 452.5,-727.8"/>
<text text-anchor="start" x="459.5" y="-740" font-family="Arial" font-size="14.00">unit_measure </text>
<text text-anchor="start" x="548.22" y="-740" font-family="Arial" font-size="14.00" fill="#666666">[unit_measure]</text>
<polygon fill="none" stroke="black" points="452.5,-697 452.5,-727.8 706.19,-727.8 706.19,-697 452.5,-697"/>
<text text-anchor="start" x="459.5" y="-709.2" font-family="Arial" font-size="14.00">status </text>
<text text-anchor="start" x="500.75" y="-709.2" font-family="Arial" font-size="14.00" fill="#666666">[entity_status]</text>
<polygon fill="none" stroke="black" points="452.5,-666.2 452.5,-697 706.19,-697 706.19,-666.2 452.5,-666.2"/>
<text text-anchor="start" x="459.5" y="-678.4" font-family="Arial" font-size="14.00">created_at </text>
<text text-anchor="start" x="529.55" y="-678.4" font-family="Arial" font-size="14.00" fill="#666666">[timestamp with time zone]</text>
<polygon fill="none" stroke="black" points="452.5,-635.4 452.5,-666.2 706.19,-666.2 706.19,-635.4 452.5,-635.4"/>
<text text-anchor="start" x="459.5" y="-647.6" font-family="Arial" font-size="14.00">updated_at </text>
<text text-anchor="start" x="533.46" y="-647.6" font-family="Arial" font-size="14.00" fill="#666666">[timestamp with time zone]</text>
<polygon fill="none" stroke="black" points="452.5,-604.6 452.5,-635.4 706.19,-635.4 706.19,-604.6 452.5,-604.6"/>
<text text-anchor="start" x="459.5" y="-616.8" font-family="Arial" font-size="14.00">organization_id </text>
<text text-anchor="start" x="558.35" y="-616.8" font-family="Arial" font-size="14.00" fill="#666666">[uuid]</text>
<polygon fill="none" stroke="black" stroke-width="3" points="451,-603.1 451,-857.3 707.69,-857.3 707.69,-603.1 451,-603.1"/>
</g>
<!-- public.organizations -->
<g id="node4" class="node">
<title>public.organizations</title>
<polygon fill="#efefef" stroke="none" points="436.87,-443.6 436.87,-479.2 721.82,-479.2 721.82,-443.6 436.87,-443.6"/>
<polygon fill="none" stroke="black" points="436.87,-443.6 436.87,-479.2 721.82,-479.2 721.82,-443.6 436.87,-443.6"/>
<text text-anchor="start" x="443.87" y="-457" font-family="Arial Bold" font-size="18.00">public.organizations</text>
<text text-anchor="start" x="590.33" y="-457" font-family="Arial" font-size="14.00">    </text>
<text text-anchor="start" x="621.45" y="-457" font-family="Arial" font-size="14.00" fill="#666666">[BASE TABLE]</text>
<polygon fill="none" stroke="black" points="436.87,-412.8 436.87,-443.6 721.82,-443.6 721.82,-412.8 436.87,-412.8"/>
<text text-anchor="start" x="443.87" y="-425" font-family="Arial" font-size="14.00">id </text>
<text text-anchor="start" x="458.66" y="-425" font-family="Arial" font-size="14.00" fill="#666666">[uuid]</text>
<polygon fill="none" stroke="black" points="436.87,-382 436.87,-412.8 721.82,-412.8 721.82,-382 436.87,-382"/>
<text text-anchor="start" x="443.87" y="-394.2" font-family="Arial" font-size="14.00">name </text>
<text text-anchor="start" x="482.78" y="-394.2" font-family="Arial" font-size="14.00" fill="#666666">[varchar(150)]</text>
<polygon fill="none" stroke="black" points="436.87,-351.2 436.87,-382 721.82,-382 721.82,-351.2 436.87,-351.2"/>
<text text-anchor="start" x="443.87" y="-363.4" font-family="Arial" font-size="14.00">slug </text>
<text text-anchor="start" x="473.44" y="-363.4" font-family="Arial" font-size="14.00" fill="#666666">[varchar(80)]</text>
<polygon fill="none" stroke="black" points="436.87,-320.4 436.87,-351.2 721.82,-351.2 721.82,-320.4 436.87,-320.4"/>
<text text-anchor="start" x="443.87" y="-332.6" font-family="Arial" font-size="14.00">logo_url </text>
<text text-anchor="start" x="497.57" y="-332.6" font-family="Arial" font-size="14.00" fill="#666666">[text]</text>
<polygon fill="none" stroke="black" points="436.87,-289.6 436.87,-320.4 721.82,-320.4 721.82,-289.6 436.87,-289.6"/>
<text text-anchor="start" x="443.87" y="-301.8" font-family="Arial" font-size="14.00">brand_primary_color </text>
<text text-anchor="start" x="576.15" y="-301.8" font-family="Arial" font-size="14.00" fill="#666666">[varchar(9)]</text>
<polygon fill="none" stroke="black" points="436.87,-258.8 436.87,-289.6 721.82,-289.6 721.82,-258.8 436.87,-258.8"/>
<text text-anchor="start" x="443.87" y="-271" font-family="Arial" font-size="14.00">brand_secondary_color </text>
<text text-anchor="start" x="594.08" y="-271" font-family="Arial" font-size="14.00" fill="#666666">[varchar(9)]</text>
<polygon fill="none" stroke="black" points="436.87,-228 436.87,-258.8 721.82,-258.8 721.82,-228 436.87,-228"/>
<text text-anchor="start" x="443.87" y="-240.2" font-family="Arial" font-size="14.00">subscription_status </text>
<text text-anchor="start" x="567.6" y="-240.2" font-family="Arial" font-size="14.00" fill="#666666">[subscription_status]</text>
<polygon fill="none" stroke="black" points="436.87,-197.2 436.87,-228 721.82,-228 721.82,-197.2 436.87,-197.2"/>
<text text-anchor="start" x="443.87" y="-209.4" font-family="Arial" font-size="14.00">subscription_plan </text>
<text text-anchor="start" x="556.72" y="-209.4" font-family="Arial" font-size="14.00" fill="#666666">[varchar(50)]</text>
<polygon fill="none" stroke="black" points="436.87,-166.4 436.87,-197.2 721.82,-197.2 721.82,-166.4 436.87,-166.4"/>
<text text-anchor="start" x="443.87" y="-178.6" font-family="Arial" font-size="14.00">crew_mode_enabled </text>
<text text-anchor="start" x="577.74" y="-178.6" font-family="Arial" font-size="14.00" fill="#666666">[boolean]</text>
<polygon fill="none" stroke="black" points="436.87,-135.6 436.87,-166.4 721.82,-166.4 721.82,-135.6 436.87,-135.6"/>
<text text-anchor="start" x="443.87" y="-147.8" font-family="Arial" font-size="14.00">role_labels </text>
<text text-anchor="start" x="515.47" y="-147.8" font-family="Arial" font-size="14.00" fill="#666666">[jsonb]</text>
<polygon fill="none" stroke="black" points="436.87,-104.8 436.87,-135.6 721.82,-135.6 721.82,-104.8 436.87,-104.8"/>
<text text-anchor="start" x="443.87" y="-117" font-family="Arial" font-size="14.00">status </text>
<text text-anchor="start" x="485.11" y="-117" font-family="Arial" font-size="14.00" fill="#666666">[entity_status]</text>
<polygon fill="none" stroke="black" points="436.87,-74 436.87,-104.8 721.82,-104.8 721.82,-74 436.87,-74"/>
<text text-anchor="start" x="443.87" y="-86.2" font-family="Arial" font-size="14.00">created_at </text>
<text text-anchor="start" x="513.92" y="-86.2" font-family="Arial" font-size="14.00" fill="#666666">[timestamp with time zone]</text>
<polygon fill="none" stroke="black" points="436.87,-43.2 436.87,-74 721.82,-74 721.82,-43.2 436.87,-43.2"/>
<text text-anchor="start" x="443.87" y="-55.4" font-family="Arial" font-size="14.00">updated_at </text>
<text text-anchor="start" x="517.83" y="-55.4" font-family="Arial" font-size="14.00" fill="#666666">[timestamp with time zone]</text>
</g>
<!-- public.products&#45;&gt;public.organizations -->
<g id="edge3" class="edge">
<title>public.products:organization_id&#45;&gt;public.organizations:id</title>
<path fill="none" stroke="black" d="M580.14,-593.45C589.89,-535.95 686.74,-582.03 721.82,-522.4 743.05,-486.31 764.69,-428.2 722.82,-428.2"/>
<polygon fill="black" stroke="black" points="580.15,-593.3 574.88,-602.92 579.73,-598.62 579.4,-602.93 579.4,-602.93 579.4,-602.93 579.73,-598.62 583.86,-603.62 580.15,-593.3"/>
<text text-anchor="start" x="166.67" y="-613.6" font-family="Arial" font-size="10.00">FOREIGN KEY (organization_id) REFERENCES organizations(id) ON DELETE RESTRICT</text>
</g>
<!-- public.blocks -->
<g id="node2" class="node">
<title>public.blocks</title>
<polygon fill="#efefef" stroke="none" points="269.5,-1258.4 269.5,-1294 523.19,-1294 523.19,-1258.4 269.5,-1258.4"/>
<polygon fill="none" stroke="black" points="269.5,-1258.4 269.5,-1294 523.19,-1294 523.19,-1258.4 269.5,-1258.4"/>
<text text-anchor="start" x="285.86" y="-1271.8" font-family="Arial Bold" font-size="18.00">public.blocks</text>
<text text-anchor="start" x="382.34" y="-1271.8" font-family="Arial" font-size="14.00">    </text>
<text text-anchor="start" x="413.46" y="-1271.8" font-family="Arial" font-size="14.00" fill="#666666">[BASE TABLE]</text>
<polygon fill="none" stroke="black" points="269.5,-1227.6 269.5,-1258.4 523.19,-1258.4 523.19,-1227.6 269.5,-1227.6"/>
<text text-anchor="start" x="276.5" y="-1239.8" font-family="Arial" font-size="14.00">id </text>
<text text-anchor="start" x="291.29" y="-1239.8" font-family="Arial" font-size="14.00" fill="#666666">[uuid]</text>
<polygon fill="none" stroke="black" points="269.5,-1196.8 269.5,-1227.6 523.19,-1227.6 523.19,-1196.8 269.5,-1196.8"/>
<text text-anchor="start" x="276.5" y="-1209" font-family="Arial" font-size="14.00">field_id </text>
<text text-anchor="start" x="324.76" y="-1209" font-family="Arial" font-size="14.00" fill="#666666">[uuid]</text>
<polygon fill="none" stroke="black" points="269.5,-1166 269.5,-1196.8 523.19,-1196.8 523.19,-1166 269.5,-1166"/>
<text text-anchor="start" x="276.5" y="-1178.2" font-family="Arial" font-size="14.00">product_id </text>
<text text-anchor="start" x="345.77" y="-1178.2" font-family="Arial" font-size="14.00" fill="#666666">[uuid]</text>
<polygon fill="none" stroke="black" points="269.5,-1135.2 269.5,-1166 523.19,-1166 523.19,-1135.2 269.5,-1135.2"/>
<text text-anchor="start" x="276.5" y="-1147.4" font-family="Arial" font-size="14.00">name </text>
<text text-anchor="start" x="315.41" y="-1147.4" font-family="Arial" font-size="14.00" fill="#666666">[varchar(100)]</text>
<polygon fill="none" stroke="black" points="269.5,-1104.4 269.5,-1135.2 523.19,-1135.2 523.19,-1104.4 269.5,-1104.4"/>
<text text-anchor="start" x="276.5" y="-1116.6" font-family="Arial" font-size="14.00">area </text>
<text text-anchor="start" x="308.41" y="-1116.6" font-family="Arial" font-size="14.00" fill="#666666">[numeric(10,2)]</text>
<polygon fill="none" stroke="black" points="269.5,-1073.6 269.5,-1104.4 523.19,-1104.4 523.19,-1073.6 269.5,-1073.6"/>
<text text-anchor="start" x="276.5" y="-1085.8" font-family="Arial" font-size="14.00">status </text>
<text text-anchor="start" x="317.75" y="-1085.8" font-family="Arial" font-size="14.00" fill="#666666">[entity_status]</text>
<polygon fill="none" stroke="black" points="269.5,-1042.8 269.5,-1073.6 523.19,-1073.6 523.19,-1042.8 269.5,-1042.8"/>
<text text-anchor="start" x="276.5" y="-1055" font-family="Arial" font-size="14.00">created_at </text>
<text text-anchor="start" x="346.55" y="-1055" font-family="Arial" font-size="14.00" fill="#666666">[timestamp with time zone]</text>
<polygon fill="none" stroke="black" points="269.5,-1012 269.5,-1042.8 523.19,-1042.8 523.19,-1012 269.5,-1012"/>
<text text-anchor="start" x="276.5" y="-1024.2" font-family="Arial" font-size="14.00">updated_at </text>
<text text-anchor="start" x="350.46" y="-1024.2" font-family="Arial" font-size="14.00" fill="#666666">[timestamp with time zone]</text>
<polygon fill="none" stroke="black" points="269.5,-981.2 269.5,-1012 523.19,-1012 523.19,-981.2 269.5,-981.2"/>
<text text-anchor="start" x="276.5" y="-993.4" font-family="Arial" font-size="14.00">organization_id </text>
<text text-anchor="start" x="375.35" y="-993.4" font-family="Arial" font-size="14.00" fill="#666666">[uuid]</text>
</g>
<!-- public.blocks&#45;&gt;public.products -->
<g id="edge1" class="edge">
<title>public.blocks:product_id&#45;&gt;public.products:id</title>
<path fill="none" stroke="black" d="M534.17,-1178.74C574.61,-1155.13 549.61,-980.91 523.19,-938 504.7,-907.98 471.08,-931.96 452.5,-902 429.74,-865.28 408.3,-804.8 451.5,-804.8"/>
<polygon fill="black" stroke="black" points="534.17,-1178.74 523.35,-1176.97 529.02,-1180.12 524.83,-1181.23 524.83,-1181.23 524.83,-1181.23 529.02,-1180.12 525.67,-1185.66 534.17,-1178.74"/>
<text text-anchor="start" x="7" y="-1191.4" font-family="Arial" font-size="10.00">FOREIGN KEY (product_id, organization_id) REFERENCES products(id, organization_id) ON DELETE RESTRICT</text>
</g>
<!-- public.rates -->
<g id="node3" class="node">
<title>public.rates</title>
<polygon fill="#efefef" stroke="none" points="627.58,-1227.6 627.58,-1263.2 899.11,-1263.2 899.11,-1227.6 627.58,-1227.6"/>
<polygon fill="none" stroke="black" points="627.58,-1227.6 627.58,-1263.2 899.11,-1263.2 899.11,-1227.6 627.58,-1227.6"/>
<text text-anchor="start" x="659.37" y="-1241" font-family="Arial Bold" font-size="18.00">public.rates</text>
<text text-anchor="start" x="742.83" y="-1241" font-family="Arial" font-size="14.00">    </text>
<text text-anchor="start" x="773.95" y="-1241" font-family="Arial" font-size="14.00" fill="#666666">[BASE TABLE]</text>
<polygon fill="none" stroke="black" points="627.58,-1196.8 627.58,-1227.6 899.11,-1227.6 899.11,-1196.8 627.58,-1196.8"/>
<text text-anchor="start" x="634.58" y="-1209" font-family="Arial" font-size="14.00">id </text>
<text text-anchor="start" x="649.36" y="-1209" font-family="Arial" font-size="14.00" fill="#666666">[uuid]</text>
<polygon fill="none" stroke="black" points="627.58,-1166 627.58,-1196.8 899.11,-1196.8 899.11,-1166 627.58,-1166"/>
<text text-anchor="start" x="634.58" y="-1178.2" font-family="Arial" font-size="14.00">product_id </text>
<text text-anchor="start" x="703.84" y="-1178.2" font-family="Arial" font-size="14.00" fill="#666666">[uuid]</text>
<polygon fill="none" stroke="black" points="627.58,-1135.2 627.58,-1166 899.11,-1166 899.11,-1135.2 627.58,-1135.2"/>
<text text-anchor="start" x="634.58" y="-1147.4" font-family="Arial" font-size="14.00">amount </text>
<text text-anchor="start" x="685.16" y="-1147.4" font-family="Arial" font-size="14.00" fill="#666666">[numeric(12,2)]</text>
<polygon fill="none" stroke="black" points="627.58,-1104.4 627.58,-1135.2 899.11,-1135.2 899.11,-1104.4 627.58,-1104.4"/>
<text text-anchor="start" x="634.58" y="-1116.6" font-family="Arial" font-size="14.00">effective_from </text>
<text text-anchor="start" x="726.39" y="-1116.6" font-family="Arial" font-size="14.00" fill="#666666">[timestamp with time zone]</text>
<polygon fill="none" stroke="black" points="627.58,-1073.6 627.58,-1104.4 899.11,-1104.4 899.11,-1073.6 627.58,-1073.6"/>
<text text-anchor="start" x="634.58" y="-1085.8" font-family="Arial" font-size="14.00">status </text>
<text text-anchor="start" x="675.82" y="-1085.8" font-family="Arial" font-size="14.00" fill="#666666">[rate_status]</text>
<polygon fill="none" stroke="black" points="627.58,-1042.8 627.58,-1073.6 899.11,-1073.6 899.11,-1042.8 627.58,-1042.8"/>
<text text-anchor="start" x="634.58" y="-1055" font-family="Arial" font-size="14.00">created_at </text>
<text text-anchor="start" x="704.62" y="-1055" font-family="Arial" font-size="14.00" fill="#666666">[timestamp with time zone]</text>
<polygon fill="none" stroke="black" points="627.58,-1012 627.58,-1042.8 899.11,-1042.8 899.11,-1012 627.58,-1012"/>
<text text-anchor="start" x="634.58" y="-1024.2" font-family="Arial" font-size="14.00">organization_id </text>
<text text-anchor="start" x="733.42" y="-1024.2" font-family="Arial" font-size="14.00" fill="#666666">[uuid]</text>
</g>
<!-- public.rates&#45;&gt;public.products -->
<g id="edge2" class="edge">
<title>public.rates:product_id&#45;&gt;public.products:id</title>
<path fill="none" stroke="black" d="M616.85,-1178.43C583.7,-1155.65 609.2,-1008.29 627.58,-968.8 646.92,-927.23 686.72,-943.51 706.19,-902 724.52,-862.88 750.39,-804.8 707.19,-804.8"/>
<polygon fill="black" stroke="black" points="616.69,-1178.39 624.94,-1185.61 621.79,-1179.94 625.94,-1181.2 625.94,-1181.2 625.94,-1181.2 621.79,-1179.94 627.57,-1177 616.69,-1178.39"/>
<text text-anchor="start" x="633.58" y="-1191.4" font-family="Arial" font-size="10.00">FOREIGN KEY (product_id, organization_id) REFERENCES products(id, organization_id) ON DELETE RESTRICT</text>
</g>
</g>
</svg>
